<svg width="25" height="19" viewBox="0 0 25 19" fill="none" xmlns="http://www.w3.org/2000/svg">
<path d="M3.44422 18.4304H21.5558C23.7429 18.4304 24.8415 17.342 24.8415 15.1866V8.99241C24.8415 8.05044 24.7054 7.57991 24.2451 7.00446L20.6246 2.53661C19.4005 1.02991 18.8567 0.569641 17.004 0.569641H7.99556C6.14378 0.569641 5.59958 1.02991 4.37503 2.53661L0.755383 7.00446C0.295115 7.58036 0.158508 8.05089 0.158508 8.99241V15.1866C0.158508 17.3527 1.26788 18.4304 3.44422 18.4304ZM12.4947 11.7442C11.0192 11.7442 10.0674 10.4571 10.0674 9.24375V9.2125C10.0674 8.77277 9.80583 8.36473 9.27235 8.36473H2.3661C2.02101 8.36473 1.94779 8.06116 2.12592 7.84152L6.00762 2.94464C6.53083 2.29598 7.11654 2.03437 7.88038 2.03437H17.1197C17.8831 2.03437 18.4692 2.29598 18.9924 2.94509L22.8741 7.84152C23.0523 8.06116 22.9786 8.36473 22.6335 8.36473H15.7277C15.1942 8.36473 14.9331 8.77277 14.9331 9.21205V9.2433C14.9331 10.4576 13.9804 11.7442 12.4947 11.7442ZM16.8996 3.57277H8.11074C7.81788 3.57277 7.60851 3.79241 7.60851 4.075C7.60851 4.35714 7.81788 4.57723 8.11074 4.57723H16.8996C17.1822 4.57723 17.3915 4.35759 17.3915 4.075C17.3915 3.79241 17.1822 3.57277 16.8996 3.57277ZM18.2915 5.9375H6.71878C6.41521 5.9375 6.19556 6.19866 6.19556 6.48125C6.19485 6.55016 6.20789 6.61851 6.23393 6.68232C6.25997 6.74612 6.29848 6.80409 6.34721 6.85281C6.39594 6.90154 6.4539 6.94005 6.51771 6.96609C6.58151 6.99213 6.64987 7.00518 6.71878 7.00446H18.2911C18.584 7.00446 18.8036 6.76384 18.8036 6.48125C18.8036 6.19866 18.5844 5.9375 18.2915 5.9375ZM3.47547 16.7455C2.42904 16.7455 1.84333 16.1911 1.84333 15.1027V9.89285H8.47726C8.73842 11.8496 10.3706 13.2933 12.4951 13.2933C14.6188 13.2933 16.2616 11.8388 16.513 9.89285H23.1563V15.1027C23.1563 16.1906 22.5598 16.7455 21.5241 16.7455H3.47547Z" fill="#F8F8F8"/>
</svg>
