<svg width="21" height="17" viewBox="0 0 21 17" fill="none" xmlns="http://www.w3.org/2000/svg">
<path d="M17.375 0C18.2038 0 18.9987 0.32924 19.5847 0.915291C20.1708 1.50134 20.5 2.2962 20.5 3.125V13.125C20.5 13.9538 20.1708 14.7487 19.5847 15.3347C18.9987 15.9208 18.2038 16.25 17.375 16.25H3.625C2.7962 16.25 2.00134 15.9208 1.41529 15.3347C0.82924 14.7487 0.5 13.9538 0.5 13.125V3.125C0.5 2.2962 0.82924 1.50134 1.41529 0.915291C2.00134 0.32924 2.7962 0 3.625 0H17.375ZM19.25 4.95125L10.8175 9.91375C10.7378 9.96056 10.6487 9.9891 10.5566 9.99731C10.4645 10.0055 10.3717 9.99321 10.285 9.96125L10.1825 9.91375L1.75 4.95375V13.125C1.75 13.6223 1.94754 14.0992 2.29917 14.4508C2.65081 14.8025 3.12772 15 3.625 15H17.375C17.8723 15 18.3492 14.8025 18.7008 14.4508C19.0525 14.0992 19.25 13.6223 19.25 13.125V4.95125ZM17.375 1.25H3.625C3.12772 1.25 2.65081 1.44754 2.29917 1.79917C1.94754 2.15081 1.75 2.62772 1.75 3.125V3.5025L10.5 8.65L19.25 3.5V3.125C19.25 2.62772 19.0525 2.15081 18.7008 1.79917C18.3492 1.44754 17.8723 1.25 17.375 1.25Z" fill="#F8F8F8"/>
</svg>
